<?xml version="1.0" encoding="UTF-8"?>
<!DOCTYPE svg PUBLIC "-//W3C//DTD SVG 1.1//EN" "http://www.w3.org/Graphics/SVG/1.1/DTD/svg11.dtd">
<!-- Creator: CorelDRAW 2018 (64 Bit Versão de avaliação) -->
<svg xmlns="http://www.w3.org/2000/svg" xml:space="preserve" width="82.4632mm" height="14.3932mm" version="1.1" style="shape-rendering:geometricPrecision; text-rendering:geometricPrecision; image-rendering:optimizeQuality; fill-rule:evenodd; clip-rule:evenodd"
viewBox="0 0 8246.32 1439.32"
 xmlns:xlink="http://www.w3.org/1999/xlink">
 <defs>
  <style type="text/css">
   <![CDATA[
    .fil1 {fill:#FF6609}
    .fil0 {fill:white;fill-rule:nonzero}
   ]]>
  </style>
 </defs>
 <g id="Camada_x0020_1">
  <metadata id="CorelCorpID_0Corel-Layer"/>
  <path class="fil0" d="M2431.08 1189.4c-14.7,11.55 -36.23,21.01 -64.58,28.36 -28.36,7.34 -60.38,11.03 -96.1,11.03 -40.96,0 -76.4,-5.25 -106.34,-15.76 -29.92,-10.49 -50.66,-27.3 -62.22,-50.41 -9.45,-17.86 -20.74,-42.79 -33.86,-74.83 -13.14,-32.02 -27.06,-67.73 -41.75,-107.12 -14.7,-39.39 -29.94,-81.66 -45.68,-126.82 -15.76,-45.15 -30.72,-89.79 -44.9,-133.89 -14.18,-44.11 -27.05,-86.65 -38.61,-127.6 -11.55,-40.97 -21,-77.2 -28.35,-108.7 14.71,-14.72 34.4,-27.57 59.07,-38.61 24.69,-11.01 51.73,-16.54 81.14,-16.54 36.75,0 66.95,7.61 90.58,22.85 23.63,15.22 41.23,43.84 52.77,85.85l61.43 241.03c11.56,47.26 22.59,90.05 33.09,128.4 10.51,38.33 18.38,67.99 23.63,88.99l7.89 0c19.94,-77.72 40.95,-163.83 63,-258.35 22.06,-94.52 42.01,-187.45 59.87,-278.83 17.85,-9.45 38.07,-16.8 60.64,-22.05 22.59,-5.26 44.38,-7.89 65.38,-7.89 36.77,0 67.75,7.89 92.94,23.63 25.21,15.76 37.83,43.06 37.83,81.93 0,16.8 -3.95,41.21 -11.82,73.25 -7.89,32.02 -17.86,68.27 -29.94,108.7 -12.07,40.43 -26.25,83.22 -42.53,128.38 -16.28,45.16 -32.82,89.27 -49.62,132.33 -16.8,43.07 -33.34,83.24 -49.63,120.51 -16.28,37.29 -30.71,68.01 -43.33,92.16zm1131.1 -362.32c0,65.1 -9.98,123.13 -29.92,174.08 -19.97,50.92 -48.06,93.72 -84.29,128.38 -36.24,34.67 -79.56,60.92 -129.96,78.76 -50.43,17.87 -106.6,26.8 -168.58,26.8 -61.96,0 -118.15,-9.46 -168.55,-28.36 -50.41,-18.9 -93.74,-45.96 -129.97,-81.14 -36.22,-35.19 -64.32,-77.98 -84.28,-128.39 -19.95,-50.4 -29.92,-107.11 -29.92,-170.13 0,-61.96 9.97,-118.15 29.92,-168.56 19.96,-50.42 48.06,-93.21 84.28,-128.4 36.23,-35.18 79.56,-62.22 129.97,-81.12 50.4,-18.91 106.59,-28.36 168.55,-28.36 61.98,0 118.15,9.71 168.58,29.14 50.4,19.42 93.72,46.74 129.96,81.92 36.23,35.19 64.32,77.98 84.29,128.39 19.94,50.42 29.92,106.07 29.92,166.99zm-551.36 0c0,64.06 12.33,113.16 37,147.29 24.69,34.14 59.08,51.2 103.19,51.2 44.12,0 77.98,-17.32 101.61,-51.99 23.63,-34.66 35.45,-83.48 35.45,-146.5 0,-63.02 -12.08,-111.58 -36.23,-145.73 -24.15,-34.12 -58.29,-51.18 -102.41,-51.18 -44.09,0 -78.24,17.06 -102.39,51.18 -24.15,34.15 -36.22,82.71 -36.22,145.73zm1167.32 -102.39c0,-32.56 -9.19,-56.45 -27.58,-71.69 -18.36,-15.22 -43.31,-22.83 -74.81,-22.83 -21.01,0 -41.75,2.62 -62.24,7.87 -20.47,5.24 -38.07,13.12 -52.77,23.63l0 546.63c-10.49,3.17 -27.03,6.31 -49.62,9.46 -22.57,3.16 -45.94,4.72 -70.11,4.72 -23.09,0 -43.83,-1.56 -62.22,-4.72 -18.38,-3.15 -33.86,-9.46 -46.48,-18.91 -12.59,-9.45 -22.31,-22.31 -29.13,-38.59 -6.83,-16.28 -10.24,-37.55 -10.24,-63.8l0 -472.6c0,-28.36 6.03,-51.47 18.11,-69.31 12.07,-17.86 28.61,-34.14 49.62,-48.84 35.71,-25.21 80.6,-45.68 134.69,-61.44 54.09,-15.76 114.22,-23.63 180.39,-23.63 118.67,0 210.05,25.99 274.11,77.98 64.06,51.99 96.1,124.18 96.1,216.62l0 493.06c-10.51,3.17 -27.05,6.31 -49.64,9.46 -22.57,3.16 -45.94,4.72 -70.09,4.72 -23.11,0 -43.86,-1.56 -62.24,-4.72 -18.37,-3.15 -33.86,-9.46 -46.46,-18.91 -12.62,-9.45 -22.33,-22.31 -29.16,-38.59 -6.81,-16.28 -10.23,-37.55 -10.23,-63.8l0 -371.77zm400.15 102.39c0,-69.31 10.49,-129.45 31.5,-180.37 21,-50.95 50.14,-93.22 87.43,-126.82 37.29,-33.61 80.86,-58.56 130.75,-74.84 49.9,-16.28 103.71,-24.41 161.48,-24.41 21.01,0 41.47,1.84 61.44,5.51 19.94,3.68 36.22,8.15 48.82,13.4l0 -255.21c10.51,-3.16 27.31,-6.57 50.42,-10.25 23.11,-3.67 46.74,-5.51 70.89,-5.51 23.11,0 43.84,1.58 62.22,4.73 18.39,3.14 33.89,9.45 46.48,18.9 12.6,9.45 22.05,22.33 28.36,38.59 6.31,16.28 9.45,37.55 9.45,63.8l0 746.73c0,49.36 -23.11,88.73 -69.33,118.15 -30.44,19.95 -69.83,37.55 -118.15,52.77 -48.3,15.22 -103.97,22.85 -166.97,22.85 -68.27,0 -129.44,-9.46 -183.53,-28.36 -54.09,-18.9 -99.77,-46.22 -137.06,-81.92 -37.28,-35.71 -65.64,-78.5 -85.07,-128.39 -19.42,-49.9 -29.13,-106.33 -29.13,-169.35zm447.39 -196.91c-56.72,0 -100.29,16.26 -130.75,48.82 -30.46,32.56 -45.7,81.92 -45.7,148.09 0,65.1 14.18,114.2 42.54,147.29 28.35,33.08 69.32,49.62 122.87,49.62 18.91,0 35.99,-2.89 51.21,-8.65 15.24,-5.79 27.05,-12.36 35.44,-19.71l0 -346.56c-21,-12.61 -46.2,-18.9 -75.61,-18.9zm461.58 452.11c0,-44.11 13.64,-80.86 40.95,-110.28 27.32,-29.4 64.59,-44.09 111.85,-44.09 47.26,0 84.54,14.69 111.86,44.09 27.29,29.42 40.95,66.17 40.95,110.28 0,44.12 -13.66,80.87 -40.95,110.28 -27.32,29.4 -64.6,44.1 -111.86,44.1 -47.26,0 -84.53,-14.7 -111.85,-44.1 -27.31,-29.41 -40.95,-66.16 -40.95,-110.28zm789.24 -661.64c43.06,0 85.33,6.03 126.82,18.12 41.48,12.08 77.46,30.18 107.9,54.35 31.52,-21 66.97,-38.34 106.36,-51.98 39.37,-13.66 86.89,-20.49 142.56,-20.49 39.91,0 79.02,5.25 117.37,15.76 38.33,10.5 72.45,27.04 102.39,49.62 29.94,22.57 53.83,52.51 71.67,89.8 17.86,37.27 26.79,82.7 26.79,136.25l0 496.23c-10.51,3.17 -27.05,6.31 -49.62,9.46 -22.59,3.16 -45.96,4.72 -70.11,4.72 -23.11,0 -43.85,-1.56 -62.22,-4.72 -18.38,-3.15 -33.88,-9.46 -46.48,-18.91 -12.59,-9.45 -22.33,-22.31 -29.14,-38.59 -6.82,-16.28 -10.25,-37.55 -10.25,-63.8l0 -376.5c0,-31.52 -8.93,-54.35 -26.77,-68.53 -17.86,-14.17 -42.01,-21.26 -72.47,-21.26 -14.7,0 -30.46,3.4 -47.26,10.23 -16.8,6.83 -29.4,13.92 -37.81,21.27 1.06,4.2 1.58,8.13 1.58,11.81 0,3.67 0,7.09 0,10.24l0 524.58c-11.55,3.17 -28.62,6.31 -51.2,9.46 -22.57,3.16 -45.42,4.72 -68.53,4.72 -23.11,0 -43.84,-1.56 -62.22,-4.72 -18.38,-3.15 -33.88,-9.46 -46.48,-18.91 -12.6,-9.45 -22.31,-22.31 -29.14,-38.59 -6.83,-16.28 -10.25,-37.55 -10.25,-63.8l0 -376.5c0,-31.52 -9.71,-54.35 -29.14,-68.53 -19.42,-14.17 -42.79,-21.26 -70.11,-21.26 -18.9,0 -35.16,2.88 -48.82,8.65 -13.66,5.79 -25.21,11.29 -34.66,16.54l0 552.94c-10.5,3.17 -27.04,6.31 -49.62,9.46 -22.57,3.16 -45.94,4.72 -70.11,4.72 -23.09,0 -43.84,-1.56 -62.22,-4.72 -18.39,-3.15 -33.87,-9.46 -46.48,-18.91 -12.6,-9.45 -22.31,-22.31 -29.14,-38.59 -6.83,-16.28 -10.23,-37.55 -10.23,-63.8l0 -475.74c0,-28.36 6.03,-50.95 18.1,-67.75 12.08,-16.8 28.62,-32.56 49.62,-47.26 35.71,-25.21 80.09,-45.68 133.13,-61.44 53.03,-15.76 108.44,-23.63 166.19,-23.63zm1370.55 814.46c-61.96,0 -119.46,-8.67 -172.5,-26 -53.03,-17.34 -99.25,-43.33 -138.64,-77.98 -39.37,-34.66 -70.35,-78.24 -92.94,-130.76 -22.59,-52.51 -33.86,-113.95 -33.86,-184.32 0,-69.3 11.27,-128.9 33.86,-178.78 22.59,-49.91 52.25,-90.86 89.01,-122.88 36.75,-32.04 78.77,-55.67 126.03,-70.89 47.26,-15.24 95.58,-22.85 144.92,-22.85 55.67,0 106.34,8.39 152.03,25.21 45.68,16.8 85.07,39.9 118.15,69.31 33.08,29.4 58.82,64.58 77.2,105.56 18.36,40.95 27.56,85.58 27.56,133.89 0,35.7 -9.98,63.02 -29.92,81.92 -19.97,18.9 -47.8,30.98 -83.51,36.23l-389.11 58.29c11.55,34.66 35.18,60.66 70.89,77.98 35.72,17.32 76.67,25.99 122.87,25.99 43.08,0 83.77,-5.51 122.1,-16.54 38.33,-11.03 69.59,-23.89 93.74,-38.59 16.8,10.5 30.98,25.19 42.53,44.1 11.56,18.9 17.32,38.87 17.32,59.87 0,47.26 -22.04,82.45 -66.16,105.54 -33.6,17.86 -71.41,29.94 -113.42,36.24 -42.02,6.29 -81.39,9.46 -118.15,9.46zm-44.12 -619.11c-25.19,0 -46.98,4.19 -65.36,12.6 -18.39,8.39 -33.35,19.16 -44.9,32.3 -11.56,13.11 -20.23,27.81 -25.99,44.09 -5.79,16.28 -9.2,32.83 -10.26,49.63l269.39 -44.1c-3.15,-21.01 -14.7,-42.01 -34.65,-63.02 -19.96,-21.01 -49.36,-31.5 -88.23,-31.5z"/>
  <g>
   <path class="fil1" d="M894.7 959.01c5.67,-0.51 11.32,-1.08 16.96,-1.68l-16.96 1.68zm71.24 -953.53c956.87,7.73 531.1,1227.33 -39.43,1428.37 -464.5,-106.25 -957.23,-1011.03 -431.57,-1323.4 -99.58,89.77 -162.19,219.76 -162.19,364.38 0,270.88 219.59,490.47 490.47,490.47 30.19,0 59.75,-2.74 88.44,-7.97 91.95,-16.74 174.97,-59.12 241.37,-119.47 98.7,-89.71 160.66,-219.13 160.66,-363.03 0,-221.23 -146.49,-408.23 -347.75,-469.35zm-181.41 216.81c118.75,0 215.02,96.27 215.02,215.02 0,118.76 -96.27,215.03 -215.02,215.03 -118.76,0 -215.03,-96.27 -215.03,-215.03 0,-118.75 96.27,-215.02 215.03,-215.02zm-23.42 20.18c95.74,0 173.35,77.61 173.35,173.35 0,95.75 -77.61,173.36 -173.35,173.36 -95.74,0 -173.36,-77.61 -173.36,-173.36 0,-95.74 77.62,-173.35 173.36,-173.35z"/>
  </g>
 </g>
</svg>
